<svg width="34" height="23" viewBox="0 0 34 23" fill="none" xmlns="http://www.w3.org/2000/svg">
<path fill-rule="evenodd" clip-rule="evenodd" d="M34 19.8333C34 21.3917 32.725 22.6667 31.1667 22.6667H2.83333C1.275 22.6667 0 21.3917 0 19.8333V2.83333C0 1.275 1.275 0 2.83333 0H31.1667C32.725 0 34 1.275 34 2.83333V19.8333Z" fill="white"/>
<path fill-rule="evenodd" clip-rule="evenodd" d="M33.9999 15.5833V19.8333C33.9999 20.2231 33.92 20.5949 33.7761 20.9332C33.6316 21.2715 33.4242 21.5775 33.1675 21.8342C32.9108 22.0909 32.6054 22.2983 32.2665 22.4428C31.9271 22.5867 31.5559 22.6666 31.1666 22.6666H18.441H5.71533L33.9999 15.5833Z" fill="#F16821"/>
<path d="M31.1667 0H2.83333C1.275 0 0 1.275 0 2.83333V19.8333C0 21.3917 1.275 22.6667 2.83333 22.6667H31.1667C32.725 22.6667 34 21.3917 34 19.8333V2.83333C34 1.275 32.725 0 31.1667 0ZM31.1667 0.566667C32.4167 0.566667 33.4333 1.58327 33.4333 2.83333V19.8333C33.4333 21.0834 32.4167 22.1 31.1667 22.1H2.83333C1.58327 22.1 0.566667 21.0834 0.566667 19.8333V2.83333C0.566667 1.58327 1.58327 0.566667 2.83333 0.566667H31.1667Z" fill="#D0D0D0"/>
<path fill-rule="evenodd" clip-rule="evenodd" d="M17.6726 9.42041C16.5789 9.42041 15.6909 10.2749 15.6909 11.3289C15.6909 12.4498 16.5398 13.2885 17.6726 13.2885C18.7758 13.2885 19.6468 12.4396 19.6468 11.3522C19.6468 10.2687 18.7815 9.42041 17.6726 9.42041Z" fill="url(#paint0_linear)"/>
<path d="M28.7601 13.2038L27.5786 11.6228C28.1294 11.5112 28.4337 11.1338 28.4337 10.5603C28.4337 9.85654 27.9509 9.45138 27.1065 9.45138H26.0208V13.2038H26.7524V11.6965H26.8481L27.8608 13.2038H28.7601ZM27.6806 10.5989C27.6806 10.9757 27.4318 11.1786 26.966 11.1786H26.7524V10.0418H26.9768C27.4318 10.0424 27.6806 10.2334 27.6806 10.5989ZM23.4606 13.2038V9.45138H25.5357V10.0872H24.1916V10.9202H25.4853V11.556H24.1916V12.5686H25.5357V13.2044H23.4606V13.2038ZM21.5084 13.2996H21.1146L19.5228 9.45138H20.3213L21.322 11.9719L22.3346 9.45138H23.1285L21.5084 13.2996ZM14.4767 13.2883C13.3626 13.2883 12.4962 12.4332 12.4962 11.3304C12.4962 10.2396 13.3853 9.36694 14.4937 9.36694C14.8082 9.36694 15.0728 9.43438 15.3935 9.59758V10.4589C15.0892 10.1603 14.8252 10.0367 14.4767 10.0367C13.7899 10.0367 13.2493 10.6045 13.2493 11.3248C13.2493 12.0841 13.7729 12.6185 14.5101 12.6185C14.8422 12.6185 15.1 12.5006 15.3935 12.2076V13.069C15.062 13.2265 14.7917 13.2883 14.4767 13.2883ZM10.9718 13.2945C10.4142 13.2945 10.0096 13.0752 9.67246 12.5799L10.1451 12.1243C10.3134 12.4502 10.595 12.6247 10.9429 12.6247C11.2699 12.6247 11.5113 12.3997 11.5113 12.096C11.5113 11.9385 11.4393 11.8036 11.2931 11.7073C11.2195 11.6625 11.0733 11.5945 10.7865 11.4942C10.1003 11.2466 9.86399 10.9825 9.86399 10.4646C9.86399 9.85201 10.3706 9.39074 11.0336 9.39074C11.4444 9.39074 11.8218 9.53128 12.1363 9.80668L11.7544 10.3076C11.5623 10.0934 11.3832 10.0033 11.1634 10.0033C10.8489 10.0033 10.6171 10.1835 10.6171 10.4198C10.6171 10.6227 10.748 10.7292 11.186 10.8924C12.0185 11.1967 12.2661 11.4664 12.2661 12.0626C12.2661 12.7873 11.7312 13.2945 10.9718 13.2945ZM8.66549 9.45138H9.39592V13.2038H8.66549V9.45138ZM8.32832 11.3304C8.32832 10.222 7.50099 9.45138 6.31439 9.45138H5.23999V13.2038H6.30816C6.87652 13.2038 7.28736 13.069 7.64719 12.7703C8.07502 12.4167 8.32832 11.8818 8.32832 11.3304ZM7.57409 11.3248C7.57409 11.6852 7.42279 12.045 7.16949 12.27C6.93886 12.4779 6.64079 12.568 6.16819 12.568H5.97099V10.0866H6.16819C6.64079 10.0866 6.92752 10.171 7.16949 10.3903C7.42279 10.6159 7.57409 10.9649 7.57409 11.3248Z" fill="#221F1F"/>
<path fill-rule="evenodd" clip-rule="evenodd" d="M15.9127 11.555C15.9127 10.501 16.8007 9.64651 17.8944 9.64651C18.3981 9.64651 18.8509 9.82161 19.196 10.114C18.8373 9.68788 18.2916 9.42041 17.6683 9.42041C16.5746 9.42041 15.6866 10.2749 15.6866 11.3289C15.6866 11.9449 15.9433 12.4753 16.3621 12.8283C16.0793 12.4912 15.9127 12.0509 15.9127 11.555Z" fill="#A3310B"/>
<defs>
<linearGradient id="paint0_linear" x1="16.5017" y1="9.72086" x2="18.8736" y2="13.197" gradientUnits="userSpaceOnUse">
<stop stop-color="#E25416"/>
<stop offset="1" stop-color="#F9A020"/>
</linearGradient>
</defs>
</svg>
