<svg width="34" height="23" viewBox="0 0 34 23" fill="none" xmlns="http://www.w3.org/2000/svg">
<path d="M34 20.7237C34 21.7967 33.1002 22.6666 31.9902 22.6666H2.00979C0.899805 22.6667 0 21.7967 0 20.7237V1.94289C0 0.869825 0.899805 0 2.00979 0H31.9902C33.1003 0 34 0.86989 34 1.94289V20.7237Z" fill="white"/>
<path d="M7.54664 11.464L6.7483 7.76185C6.61184 7.25132 6.21473 7.09944 5.71854 7.07935H2.05836L2.02576 7.2485C4.87651 7.91656 6.76278 9.52821 7.54664 11.464Z" fill="#F79F1A"/>
<path d="M16.0271 7.15381H13.6622L12.1852 15.5328H14.5462L16.0271 7.15381Z" fill="#059BBF"/>
<path d="M8.98754 15.5243L12.707 7.15942H10.204L7.89024 12.8745L7.64327 12.0116C7.18972 10.9735 5.89347 9.47938 4.3717 8.53882L6.48674 15.5271L8.98754 15.5243Z" fill="#059BBF"/>
<path d="M22.7733 12.7938C22.7821 11.8425 22.1502 11.1169 20.7886 10.5176C19.9611 10.1305 19.4568 9.87238 19.4628 9.47958C19.4628 9.13255 19.8899 8.75978 20.8154 8.75978C21.5897 8.74829 22.1473 8.91172 22.5834 9.08094L22.7971 9.17562L23.1175 7.36042C22.6488 7.19114 21.916 7.0105 20.9995 7.0105C18.6649 7.0105 17.0215 8.14615 17.0066 9.77494C16.9918 10.9794 18.1815 11.6504 19.0773 12.0518C19.9968 12.461 20.3053 12.7228 20.2994 13.0899C20.2935 13.6511 19.5666 13.9071 18.8873 13.9071C17.941 13.9071 17.4397 13.7809 16.6621 13.4678L16.36 13.3336L16.0281 15.2112C16.5794 15.4442 17.5998 15.6478 18.659 15.6563C21.1417 15.6563 22.7555 14.5351 22.7733 12.7938Z" fill="#059BBF"/>
<path d="M25.5817 14.2771C25.8516 14.2771 28.2633 14.2799 28.6076 14.2799C28.6788 14.5717 28.8953 15.5359 28.8953 15.5359H31.0874L29.1741 7.1626H27.3498C26.7831 7.1626 26.362 7.31172 26.1128 7.85647L22.6035 15.5359H25.0866C25.0864 15.5359 25.4897 14.5037 25.5817 14.2771ZM27.2013 10.2194C27.1896 10.2423 27.3972 9.73478 27.5159 9.41933L27.676 10.1419C27.676 10.1419 28.127 12.1436 28.2218 12.5623H26.261C26.4568 12.0805 27.2013 10.2194 27.2013 10.2194Z" fill="#059BBF"/>
<path d="M31.9902 0H2.00979C0.899805 0 0 0.869826 0 1.94289V3.95934H34V1.94289C34 0.869826 33.1003 0 31.9902 0Z" fill="#059BBF"/>
<path d="M31.9902 22.6666H2.00979C0.899805 22.6666 0 21.7967 0 20.7237V18.7073H34V20.7237C34 21.7967 33.1003 22.6666 31.9902 22.6666Z" fill="#F79F1A"/>
</svg>
